<?xml version="1.0" standalone="no"?>
<!DOCTYPE svg PUBLIC "-//W3C//DTD SVG 20010904//EN"
 "http://www.w3.org/TR/2001/REC-SVG-20010904/DTD/svg10.dtd">
<svg version="1.0" xmlns="http://www.w3.org/2000/svg"
 width="120.000000pt" height="120.000000pt" viewBox="0 0 120.000000 120.000000"
 preserveAspectRatio="xMidYMid meet">

<g transform="translate(0.000000,120.000000) scale(0.100000,-0.100000)"
fill="#000000" stroke="none">
<path d="M515 1189 c-226 -42 -406 -191 -474 -390 -37 -110 -46 -203 -27 -299
65 -348 396 -566 730 -480 258 66 436 278 453 540 19 301 -191 569 -490 625
-87 17 -118 17 -192 4z m285 -344 l0 -35 -160 0 -161 0 3 -81 3 -81 148 1 147
2 0 -41 0 -40 -150 0 -150 0 0 -90 0 -90 163 -2 162 -3 0 -35 0 -35 -202 -3
-203 -2 0 285 0 285 200 0 200 0 0 -35z m134 -451 c43 -16 38 -84 -5 -84 -50
0 -70 30 -49 71 11 20 27 23 54 13z"/>
</g>
</svg>
